<?xml version="1.0" encoding="UTF-8" standalone="no"?>
<!DOCTYPE svg PUBLIC "-//W3C//DTD SVG 1.1//EN" "http://www.w3.org/Graphics/SVG/1.1/DTD/svg11.dtd">
<svg width="100%" height="100%" viewBox="0 0 384 512" version="1.1" xmlns="http://www.w3.org/2000/svg" xmlns:xlink="http://www.w3.org/1999/xlink" xml:space="preserve" xmlns:serif="http://www.serif.com/" style="fill-rule:evenodd;clip-rule:evenodd;stroke-linejoin:round;stroke-miterlimit:2;">
    <path d="M214.6,41.4C202.1,28.9 181.8,28.9 169.3,41.4L9.3,201.4C-3.2,213.9 -3.2,234.2 9.3,246.7C21.8,259.2 42.1,259.2 54.6,246.7C54.6,246.7 137.215,164.025 174.322,126.891C179.01,122.199 185.37,119.563 192.002,119.562C198.634,119.561 204.995,122.195 209.684,126.884C246.795,163.995 329.4,246.6 329.4,246.6C341.9,259.1 362.2,259.1 374.7,246.6C387.2,234.1 387.2,213.8 374.7,201.3L214.7,41.3L214.6,41.4Z" style="fill-rule:nonzero;"/>
</svg>
